<svg width="24" height="25" viewBox="0 0 24 25" fill="none" xmlns="http://www.w3.org/2000/svg">
<path d="M9 17.9629V18.9629C9 19.7585 9.31607 20.5216 9.87868 21.0842C10.4413 21.6468 11.2044 21.9629 12 21.9629C12.7956 21.9629 13.5587 21.6468 14.1213 21.0842C14.6839 20.5216 15 19.7585 15 18.9629V17.9629M10 5.96289C10 5.43246 10.2107 4.92375 10.5858 4.54868C10.9609 4.1736 11.4696 3.96289 12 3.96289C12.5304 3.96289 13.0391 4.1736 13.4142 4.54868C13.7893 4.92375 14 5.43246 14 5.96289C15.1484 6.50592 16.1274 7.35122 16.8321 8.40819C17.5367 9.46516 17.9404 10.694 18 11.9629V14.9629C18.0753 15.5846 18.2954 16.1799 18.6428 16.701C18.9902 17.2221 19.4551 17.6543 20 17.9629H4C4.54494 17.6543 5.00981 17.2221 5.35719 16.701C5.70457 16.1799 5.92474 15.5846 6 14.9629V11.9629C6.05956 10.694 6.4633 9.46516 7.16795 8.40819C7.8726 7.35122 8.85159 6.50592 10 5.96289Z" stroke="#354052" stroke-width="2" stroke-linecap="round" stroke-linejoin="round"/>
</svg>
