<svg width="24" height="25" viewBox="0 0 24 25" fill="none" xmlns="http://www.w3.org/2000/svg">
<path d="M16 3.96289V7.96289M8 3.96289V7.96289M4 11.9629H20M11 15.9629H12V18.9629M4 7.96289C4 7.43246 4.21071 6.92375 4.58579 6.54868C4.96086 6.1736 5.46957 5.96289 6 5.96289H18C18.5304 5.96289 19.0391 6.1736 19.4142 6.54868C19.7893 6.92375 20 7.43246 20 7.96289V19.9629C20 20.4933 19.7893 21.002 19.4142 21.3771C19.0391 21.7522 18.5304 21.9629 18 21.9629H6C5.46957 21.9629 4.96086 21.7522 4.58579 21.3771C4.21071 21.002 4 20.4933 4 19.9629V7.96289Z" stroke="#354052" stroke-width="2" stroke-linecap="round" stroke-linejoin="round"/>
</svg>
