<svg width="24" height="25" viewBox="0 0 24 25" fill="none" xmlns="http://www.w3.org/2000/svg">
<path d="M15.9999 5.96275L18.9999 8.96275M8.99992 8.03276C7.24571 8.2827 5.65156 9.18861 4.53904 10.5677C3.42651 11.9469 2.87841 13.6966 3.00528 15.464C3.13216 17.2314 3.92457 18.8849 5.22269 20.091C6.5208 21.297 8.228 21.966 9.99992 21.9628C11.6833 21.963 13.3104 21.3565 14.583 20.2545C15.8556 19.1526 16.6884 17.6289 16.9289 15.9628M11.9999 15.9628L20.3849 7.54775C20.7787 7.15391 21 6.61974 21 6.06275C21 5.50577 20.7787 4.9716 20.3849 4.57775C19.991 4.18391 19.4569 3.96265 18.8999 3.96265C18.3429 3.96265 17.8087 4.18391 17.4149 4.57775L8.99988 12.9628V15.9628H11.9999Z" stroke="#354052" stroke-width="2" stroke-linecap="round" stroke-linejoin="round"/>
</svg>
