<svg width="24" height="25" viewBox="0 0 24 25" fill="none" xmlns="http://www.w3.org/2000/svg">
<path d="M9 21.9627V15.9627C9 15.4323 9.21071 14.9236 9.58579 14.5485C9.96086 14.1734 10.4696 13.9627 11 13.9627H13C13.5304 13.9627 14.0391 14.1734 14.4142 14.5485C14.7893 14.9236 15 15.4323 15 15.9627V21.9627M5 12.9627H3L12 3.96271L21 12.9627H19V19.9627C19 20.4931 18.7893 21.0018 18.4142 21.3769C18.0391 21.752 17.5304 21.9627 17 21.9627H7C6.46957 21.9627 5.96086 21.752 5.58579 21.3769C5.21071 21.0018 5 20.4931 5 19.9627V12.9627Z" stroke="#354052" stroke-width="2" stroke-linecap="round" stroke-linejoin="round"/>
</svg>
