<svg width="24" height="25" viewBox="0 0 24 25" fill="none" xmlns="http://www.w3.org/2000/svg">
<path d="M12 9.96289H12.01M11 12.9629H12V16.9629H13M3 12.9629C3 14.1448 3.23279 15.3151 3.68508 16.407C4.13738 17.499 4.80031 18.4911 5.63604 19.3269C6.47177 20.1626 7.46392 20.8255 8.55585 21.2778C9.64778 21.7301 10.8181 21.9629 12 21.9629C13.1819 21.9629 14.3522 21.7301 15.4442 21.2778C16.5361 20.8255 17.5282 20.1626 18.364 19.3269C19.1997 18.4911 19.8626 17.499 20.3149 16.407C20.7672 15.3151 21 14.1448 21 12.9629C21 10.5759 20.0518 8.28676 18.364 6.59893C16.6761 4.9111 14.3869 3.96289 12 3.96289C9.61305 3.96289 7.32387 4.9111 5.63604 6.59893C3.94821 8.28676 3 10.5759 3 12.9629Z" stroke="#354052" stroke-width="2" stroke-linecap="round" stroke-linejoin="round"/>
</svg>
