<svg width="24" height="25" viewBox="0 0 24 25" fill="none" xmlns="http://www.w3.org/2000/svg">
<path d="M9 11.9631C9 12.7587 9.31607 13.5218 9.87868 14.0844C10.4413 14.647 11.2044 14.9631 12 14.9631C12.7956 14.9631 13.5587 14.647 14.1213 14.0844C14.6839 13.5218 15 12.7587 15 11.9631C15 11.1674 14.6839 10.4044 14.1213 9.84177C13.5587 9.27916 12.7956 8.96309 12 8.96309C11.2044 8.96309 10.4413 9.27916 9.87868 9.84177C9.31607 10.4044 9 11.1674 9 11.9631Z" stroke="#354052" stroke-width="2" stroke-linecap="round" stroke-linejoin="round"/>
<path d="M17.657 17.6201L13.414 21.8631C13.039 22.2377 12.5306 22.4482 12.0005 22.4482C11.4704 22.4482 10.962 22.2377 10.587 21.8631L6.343 17.6201C5.22422 16.5013 4.46234 15.0758 4.15369 13.5239C3.84504 11.9721 4.00349 10.3636 4.60901 8.90182C5.21452 7.44003 6.2399 6.19063 7.55548 5.31159C8.87107 4.43256 10.4178 3.96338 12 3.96338C13.5822 3.96338 15.1289 4.43256 16.4445 5.31159C17.7601 6.19063 18.7855 7.44003 19.391 8.90182C19.9965 10.3636 20.155 11.9721 19.8463 13.5239C19.5377 15.0758 18.7758 16.5013 17.657 17.6201Z" stroke="#354052" stroke-width="2" stroke-linecap="round" stroke-linejoin="round"/>
</svg>
