<svg width="24" height="25" viewBox="0 0 24 25" fill="none" xmlns="http://www.w3.org/2000/svg">
<path d="M14 8.96271V6.96271C14 6.43227 13.7893 5.92357 13.4142 5.54849C13.0391 5.17342 12.5304 4.96271 12 4.96271H5C4.46957 4.96271 3.96086 5.17342 3.58579 5.54849C3.21071 5.92357 3 6.43227 3 6.96271V18.9627C3 19.4931 3.21071 20.0018 3.58579 20.3769C3.96086 20.752 4.46957 20.9627 5 20.9627H12C12.5304 20.9627 13.0391 20.752 13.4142 20.3769C13.7893 20.0018 14 19.4931 14 18.9627V16.9627M7 12.9627H21M21 12.9627L18 9.96271M21 12.9627L18 15.9627" stroke="#354052" stroke-width="2" stroke-linecap="round" stroke-linejoin="round"/>
</svg>
