<svg width="24" height="25" viewBox="0 0 24 25" fill="none" xmlns="http://www.w3.org/2000/svg">
<path d="M4 12.9629C4 13.2281 4.10536 13.4825 4.29289 13.67C4.48043 13.8575 4.73478 13.9629 5 13.9629C5.26522 13.9629 5.51957 13.8575 5.70711 13.67C5.89464 13.4825 6 13.2281 6 12.9629C6 12.6977 5.89464 12.4433 5.70711 12.2558C5.51957 12.0682 5.26522 11.9629 5 11.9629C4.73478 11.9629 4.48043 12.0682 4.29289 12.2558C4.10536 12.4433 4 12.6977 4 12.9629Z" stroke="#354052" stroke-width="2" stroke-linecap="round" stroke-linejoin="round"/>
<path d="M11 12.9629C11 13.2281 11.1054 13.4825 11.2929 13.67C11.4804 13.8575 11.7348 13.9629 12 13.9629C12.2652 13.9629 12.5196 13.8575 12.7071 13.67C12.8946 13.4825 13 13.2281 13 12.9629C13 12.6977 12.8946 12.4433 12.7071 12.2558C12.5196 12.0682 12.2652 11.9629 12 11.9629C11.7348 11.9629 11.4804 12.0682 11.2929 12.2558C11.1054 12.4433 11 12.6977 11 12.9629Z" stroke="#354052" stroke-width="2" stroke-linecap="round" stroke-linejoin="round"/>
<path d="M18 12.9629C18 13.2281 18.1054 13.4825 18.2929 13.67C18.4804 13.8575 18.7348 13.9629 19 13.9629C19.2652 13.9629 19.5196 13.8575 19.7071 13.67C19.8946 13.4825 20 13.2281 20 12.9629C20 12.6977 19.8946 12.4433 19.7071 12.2558C19.5196 12.0682 19.2652 11.9629 19 11.9629C18.7348 11.9629 18.4804 12.0682 18.2929 12.2558C18.1054 12.4433 18 12.6977 18 12.9629Z" stroke="#354052" stroke-width="2" stroke-linecap="round" stroke-linejoin="round"/>
</svg>
