<svg width="24" height="25" viewBox="0 0 24 25" fill="none" xmlns="http://www.w3.org/2000/svg">
<path d="M8 11.9629V7.96289C8 6.90202 8.42143 5.88461 9.17157 5.13446C9.92172 4.38432 10.9391 3.96289 12 3.96289C13.0609 3.96289 14.0783 4.38432 14.8284 5.13446C15.5786 5.88461 16 6.90202 16 7.96289V11.9629M5 13.9629C5 13.4325 5.21071 12.9238 5.58579 12.5487C5.96086 12.1736 6.46957 11.9629 7 11.9629H17C17.5304 11.9629 18.0391 12.1736 18.4142 12.5487C18.7893 12.9238 19 13.4325 19 13.9629V19.9629C19 20.4933 18.7893 21.002 18.4142 21.3771C18.0391 21.7522 17.5304 21.9629 17 21.9629H7C6.46957 21.9629 5.96086 21.7522 5.58579 21.3771C5.21071 21.002 5 20.4933 5 19.9629V13.9629ZM11 16.9629C11 17.2281 11.1054 17.4825 11.2929 17.67C11.4804 17.8575 11.7348 17.9629 12 17.9629C12.2652 17.9629 12.5196 17.8575 12.7071 17.67C12.8946 17.4825 13 17.2281 13 16.9629C13 16.6977 12.8946 16.4433 12.7071 16.2558C12.5196 16.0682 12.2652 15.9629 12 15.9629C11.7348 15.9629 11.4804 16.0682 11.2929 16.2558C11.1054 16.4433 11 16.6977 11 16.9629Z" stroke="#354052" stroke-width="2" stroke-linecap="round" stroke-linejoin="round"/>
</svg>
