<svg width="24" height="25" viewBox="0 0 24 25" fill="none" xmlns="http://www.w3.org/2000/svg">
<path d="M10 12.9629C10 13.4933 10.2107 14.002 10.5858 14.3771C10.9609 14.7522 11.4696 14.9629 12 14.9629C12.5304 14.9629 13.0391 14.7522 13.4142 14.3771C13.7893 14.002 14 13.4933 14 12.9629C14 12.4325 13.7893 11.9238 13.4142 11.5487C13.0391 11.1736 12.5304 10.9629 12 10.9629C11.4696 10.9629 10.9609 11.1736 10.5858 11.5487C10.2107 11.9238 10 12.4325 10 12.9629Z" stroke="#354052" stroke-width="2" stroke-linecap="round" stroke-linejoin="round"/>
<path d="M21 12.9629C18.6 16.9629 15.6 18.9629 12 18.9629C8.4 18.9629 5.4 16.9629 3 12.9629C5.4 8.96289 8.4 6.96289 12 6.96289C15.6 6.96289 18.6 8.96289 21 12.9629Z" stroke="#354052" stroke-width="2" stroke-linecap="round" stroke-linejoin="round"/>
</svg>
