<svg width="24" height="25" viewBox="0 0 24 25" fill="none" xmlns="http://www.w3.org/2000/svg">
<path d="M16.418 5.11989C14.6063 5.4842 12.9766 6.46449 11.8058 7.89422C10.6349 9.32394 9.99515 11.1149 9.99515 12.9629C9.99515 14.8109 10.6349 16.6018 11.8058 18.0316C12.9766 19.4613 14.6063 20.4416 16.418 20.8059M3 12.9629C3 14.1448 3.23279 15.3151 3.68508 16.407C4.13738 17.499 4.80031 18.4911 5.63604 19.3269C6.47177 20.1626 7.46392 20.8255 8.55585 21.2778C9.64778 21.7301 10.8181 21.9629 12 21.9629C13.1819 21.9629 14.3522 21.7301 15.4442 21.2778C16.5361 20.8255 17.5282 20.1626 18.364 19.3269C19.1997 18.4911 19.8626 17.499 20.3149 16.407C20.7672 15.3151 21 14.1448 21 12.9629C21 11.781 20.7672 10.6107 20.3149 9.51874C19.8626 8.42681 19.1997 7.43466 18.364 6.59893C17.5282 5.7632 16.5361 5.10027 15.4442 4.64797C14.3522 4.19568 13.1819 3.96289 12 3.96289C10.8181 3.96289 9.64778 4.19568 8.55585 4.64797C7.46392 5.10027 6.47177 5.7632 5.63604 6.59893C4.80031 7.43466 4.13738 8.42681 3.68508 9.51874C3.23279 10.6107 3 11.781 3 12.9629Z" stroke="#354052" stroke-width="2" stroke-linecap="round" stroke-linejoin="round"/>
</svg>
