<svg width="24" height="25" viewBox="0 0 24 25" fill="none" xmlns="http://www.w3.org/2000/svg">
<path d="M6 21.9629V19.9629C6 18.902 6.42143 17.8846 7.17157 17.1345C7.92172 16.3843 8.93913 15.9629 10 15.9629H14C15.0609 15.9629 16.0783 16.3843 16.8284 17.1345C17.5786 17.8846 18 18.902 18 19.9629V21.9629M8 7.96289C8 9.02376 8.42143 10.0412 9.17157 10.7913C9.92172 11.5415 10.9391 11.9629 12 11.9629C13.0609 11.9629 14.0783 11.5415 14.8284 10.7913C15.5786 10.0412 16 9.02376 16 7.96289C16 6.90202 15.5786 5.88461 14.8284 5.13446C14.0783 4.38432 13.0609 3.96289 12 3.96289C10.9391 3.96289 9.92172 4.38432 9.17157 5.13446C8.42143 5.88461 8 6.90202 8 7.96289Z" stroke="#354052" stroke-width="2" stroke-linecap="round" stroke-linejoin="round"/>
</svg>
